# xmcd
#
# Track frame offsets:
#	150
#	17963
#	35703
#	52848
#	73702
#	88745
#	108004
#	126635
#	149061
#	162911
#	178948
#	194319
#	213040
#	232457
#	251157
#
# Disc length: 3574 seconds
#
# Revision: 3
# Processed by: cddbd v1.5.2PL0 Copyright (c) Steve Scherf et al.
# Submitted via: EasyCDDAExtractor 15.3.0.1
#
DISCID=e80df40f
DTITLE=Alvaro Torres - 30 Exitos Insuperables - CD 2
DYEAR=2003
DGENRE=Latin
TTITLE0=El Dia Que Me Dejes
TTITLE1=Cruz De Olvido
TTITLE2=Stress
TTITLE3=Te Dejo Libre
TTITLE4=Estoy Enamorado De Ti
TTITLE5=En Busca Del Amor
TTITLE6=Mi Otro Yo
TTITLE7=Reencuentro
TTITLE8=Cien Años
TTITLE9=Ven Y Dame Un Poco Mas
TTITLE10=Mujer De Nieve
TTITLE11=El Ultimo Romantico
TTITLE12=Tu Mejor Amigo
TTITLE13=Lo Que Me Quede Por Vivir
TTITLE14=Con Todo Mi Amor
EXTD=
EXTT0=
EXTT1=
EXTT2=
EXTT3=
EXTT4=
EXTT5=
EXTT6=
EXTT7=
EXTT8=
EXTT9=
EXTT10=
EXTT11=
EXTT12=
EXTT13=
EXTT14=
PLAYORDER=
